<?xml version="1.0" encoding="UTF-8"?>
<!DOCTYPE svg PUBLIC "-//W3C//DTD SVG 1.1//EN" "http://www.w3.org/Graphics/SVG/1.1/DTD/svg11.dtd">
<svg xmlns="http://www.w3.org/2000/svg" version="1.1" width="619px" height="469px" style="shape-rendering:geometricPrecision; text-rendering:geometricPrecision; image-rendering:optimizeQuality; fill-rule:evenodd; clip-rule:evenodd" xmlns:xlink="http://www.w3.org/1999/xlink">
<g><path style="opacity:0.993" fill="var(--main-color)" d="M 217.5,-0.5 C 219.167,-0.5 220.833,-0.5 222.5,-0.5C 228.424,10.3479 234.091,21.3479 239.5,32.5C 276.674,27.3181 314.008,26.1515 351.5,29C 360.572,29.7589 369.572,30.9256 378.5,32.5C 383.909,21.3479 389.576,10.3479 395.5,-0.5C 397.167,-0.5 398.833,-0.5 400.5,-0.5C 443.677,7.50295 485.177,20.8363 525,39.5C 580.935,120.469 612.102,210.136 618.5,308.5C 618.5,326.833 618.5,345.167 618.5,363.5C 617.709,372.375 616.709,381.375 615.5,390.5C 568.58,424.961 517.247,450.961 461.5,468.5C 460.5,468.5 459.5,468.5 458.5,468.5C 446.124,451.6 435.124,433.767 425.5,415C 442.935,406.949 460.268,398.283 477.5,389C 473.049,386.217 468.883,383.05 465,379.5C 372.584,421.425 278.417,425.591 182.5,392C 172.478,388.238 162.645,384.071 153,379.5C 149.167,382.667 145.333,385.833 141.5,389C 158.04,398.937 175.374,407.27 193.5,414C 183.608,432.971 172.608,451.137 160.5,468.5C 159.167,468.5 157.833,468.5 156.5,468.5C 100.826,451.081 49.6594,425.081 3,390.5C 2.66667,389.5 2.33333,388.5 2,387.5C 1.30943,377 0.476101,366.667 -0.5,356.5C -0.5,342.833 -0.5,329.167 -0.5,315.5C 4.82421,214.693 35.9909,122.693 93,39.5C 132.867,20.8211 174.367,7.48776 217.5,-0.5 Z M 201.5,195.5 C 232.698,196.525 252.198,212.192 260,242.5C 265.225,271.863 255.725,295.03 231.5,312C 205.741,323.781 183.574,318.948 165,297.5C 146.722,269.913 147.055,242.58 166,215.5C 175.493,204.508 187.326,197.841 201.5,195.5 Z M 407.5,195.5 C 439.645,197.328 459.145,213.995 466,245.5C 469.603,271.378 461.437,292.544 441.5,309C 410.077,325.86 384.577,319.36 365,289.5C 352.118,263.021 354.452,238.021 372,214.5C 381.581,203.795 393.414,197.462 407.5,195.5 Z"/></g>
</svg>
